<svg id="Layer_2" data-name="Layer 2" xmlns="http://www.w3.org/2000/svg" xmlns:xlink="http://www.w3.org/1999/xlink" viewBox="0 0 420.17 156.63"><defs><style>.cls-1,.cls-2{fill:#fff;stroke:#fff;}.cls-1,.cls-10,.cls-11,.cls-2,.cls-3,.cls-4,.cls-5,.cls-6,.cls-7,.cls-8,.cls-9{stroke-miterlimit:10;}.cls-1,.cls-10,.cls-11,.cls-3,.cls-4,.cls-5,.cls-6,.cls-7,.cls-8,.cls-9{stroke-width:0.5px;}.cls-3{fill:#fff484;}.cls-10,.cls-11,.cls-3,.cls-4,.cls-5,.cls-6,.cls-7,.cls-8,.cls-9{stroke:#cb9865;}.cls-4{fill:#9aeeff;}.cls-5{fill:url(#linear-gradient);}.cls-6{fill:url(#linear-gradient-2);}.cls-7{fill:url(#linear-gradient-3);}.cls-8{fill:url(#linear-gradient-4);}.cls-9{fill:url(#linear-gradient-5);}.cls-10{fill:url(#linear-gradient-6);}.cls-11{fill:url(#linear-gradient-7);}</style><linearGradient id="linear-gradient" x1="707.99" y1="466.98" x2="736.89" y2="495.87" gradientUnits="userSpaceOnUse"><stop offset="0" stop-color="#ff9f99"/><stop offset="0.05" stop-color="#fa9"/><stop offset="0.13" stop-color="#ffc899"/><stop offset="0.16" stop-color="#ffd399"/><stop offset="0.34" stop-color="#fdefa4"/><stop offset="0.5" stop-color="#a3f79a"/><stop offset="0.69" stop-color="#9de1f0"/><stop offset="0.85" stop-color="#9eaad6"/><stop offset="1" stop-color="#b19dde"/></linearGradient><linearGradient id="linear-gradient-2" x1="759.41" y1="471.48" x2="792.09" y2="504.15" xlink:href="#linear-gradient"/><linearGradient id="linear-gradient-3" x1="809.83" y1="495.71" x2="837.56" y2="523.44" xlink:href="#linear-gradient"/><linearGradient id="linear-gradient-4" x1="662.47" y1="473.83" x2="682.14" y2="493.5" xlink:href="#linear-gradient"/><linearGradient id="linear-gradient-5" x1="846.64" y1="525.47" x2="875.45" y2="554.28" xlink:href="#linear-gradient"/><linearGradient id="linear-gradient-6" x1="575.91" y1="528.5" x2="593.67" y2="546.26" xlink:href="#linear-gradient"/><linearGradient id="linear-gradient-7" x1="617.27" y1="492.61" x2="639.93" y2="515.26" xlink:href="#linear-gradient"/></defs><g id="final"><g id="R"><path class="cls-1" d="M713.84,626.77H703.56a4.46,4.46,0,0,1-4.46-4.46v-37a4.45,4.45,0,0,0-4.46-4.46H681c-17.44.48-25.38,6-29.79,20.61-3.39,10.69-6.21,18.7-8.44,22.95a4.45,4.45,0,0,1-3.94,2.37h-10a4.46,4.46,0,0,1-4.11-6.21c2.31-5.33,4.94-13.11,8.15-22.88,3.53-11,10.37-18.56,21.84-21.39v-.48c-15.67-3.77-28-13-28-27,0-8.18,7.58-17.93,15.08-22.65,9.27-6,20.48-9,41-9,11.64,0,22.74,2.81,31.85,4.46a4.44,4.44,0,0,1,3.65,4.38l0,96.33A4.46,4.46,0,0,1,713.84,626.77Zm-14.79-91.08a4.46,4.46,0,0,0-4-4.48,146.47,146.47,0,0,0-15-.67c-20.3.16-27.32,6.6-27.32,16.6s8.48,18,29,18h12.58a4.47,4.47,0,0,0,4.46-4.43Z" transform="translate(-512.96 -471.61)"/></g><g id="B"><path class="cls-1" d="M726.17,526.24a4.47,4.47,0,0,1,3.63-4.4c8.63-1.63,21.29-4.72,33-4.72,19.2,0,29.73,3.65,39,9a23.7,23.7,0,0,1,12.67,20.56c0,10.22-9.48,19.18-25.15,23.27v.32c14.12,2.51,30.68,10.84,30.68,26.57,0,9.12-5.07,16-12.58,21.23C797,624.84,780.26,628,756,628c-10.69,0-19.36-.41-25.67-.9a4.47,4.47,0,0,1-4.13-4.46Zm19.21,35.15a4.48,4.48,0,0,0,4.48,4.48h13c20.3,0,29-8.53,29-18.75,0-12.43-10-16.32-29.41-16.32-5.72,0-9.87.2-12.92.47a4.46,4.46,0,0,0-4.07,4.46Zm0,51.17a4.46,4.46,0,0,0,4.19,4.47c3.28.19,7.3.26,11.92.26,19.86,0,38.18-5.19,38.18-20.6,0-14.47-17.44-20.44-38.41-20.44H749.86a4.49,4.49,0,0,0-4.48,4.48Z" transform="translate(-512.96 -471.61)"/></g><g id="YCLOUD"><path class="cls-1" d="M524.82,587.24S512.69,580.09,524,572c11.83-8.45,19.43,5.07,19.43,5.07s-.85-11,12.67-11,15.21,8.45,15.21,8.45,8.93-5.92,18.41-1.27,3.56,13.94,3.56,13.94,10.14-.85,10.14,11c0,10.14-16.89,4.23-16.89,4.23s5.07,11-5.92,16.9c-10.36,5.58-21.12-8.45-21.12-8.45s-.84,11.83-16.05,9.3c-16.37-2.73-11.83-16.05-11.83-16.05s-13.66,7.19-17.75-5.07C511.3,591.47,524.82,587.24,524.82,587.24Z" transform="translate(-512.96 -471.61)"/><path class="cls-1" d="M854.3,587.06s-12.12-7.15-.84-15.21c11.82-8.45,19.43,5.06,19.43,5.06s-.85-11,12.67-11,15.21,8.44,15.21,8.44,8.93-5.91,18.41-1.27S922.74,587,922.74,587s10.14-.84,10.14,11c0,10.13-16.9,4.22-16.9,4.22s5.08,11-5.91,16.9c-10.36,5.58-21.12-8.44-21.12-8.44s-.84,11.83-16.05,9.29c-16.38-2.72-11.83-16-11.83-16s-13.66,7.2-17.75-5.06C840.79,591.28,854.3,587.06,854.3,587.06Z" transform="translate(-512.96 -471.61)"/></g><g id="EXPRESS"><path class="cls-2" d="M700.34,479.31a2,2,0,0,1,1.33-2.94,106.85,106.85,0,0,1,16.81-2.1c11.13-.49,18.33.9,22.62,2.75,3.47,1.49,4.7,3.4,3.83,5.15-1,1.94-3.86,3.08-7.53,3.77a2,2,0,0,0-1.18,3.36,4.83,4.83,0,0,1,1.41,3c.15,1.73.17,3.18.2,4.33a2,2,0,0,1-2.3,2c-.52-.08-1-.15-1.64-.22A2,2,0,0,1,732.2,497c-.28-1.06-.59-2.61-1.08-4.51-.85-3.29-3.88-4.9-10.71-4.71-1.86.07-3.11.15-4.54.28a2,2,0,0,0-1.73,2.62c.64,1.9,1.14,3.44,1.78,5.35a2,2,0,0,1-1.58,2.61l-1.49.24a2,2,0,0,1-2.07-1Zm11.76,5.2a2,2,0,0,0,2.1,1.36c2.28-.23,3.87-.33,6.56-.43,8.57-.3,14.47-1.39,15.18-4.05.82-3-6-5.2-16.47-4.81a72.28,72.28,0,0,0-7.31.61,2,2,0,0,0-1.62,2.61C711.08,481.44,711.53,482.77,712.1,484.51Z" transform="translate(-512.96 -471.61)"/><path class="cls-2" d="M794,499.11a171,171,0,0,0-25.29-6.91,1.18,1.18,0,0,0-1.41,1.22c.1,2.14.17,3.65.28,6a1.17,1.17,0,0,0,.88,1.09c11.13,3,14.47,3.85,21.51,5.88a1.18,1.18,0,0,1,.5,2l0,0a1.19,1.19,0,0,1-1.18.27c-9.84-3.16-20.15-5.4-30.16-7.92a1.19,1.19,0,0,1-.88-1c-1.43-8.84-1.84-11.52-3.64-20.12a1.2,1.2,0,0,1,1.31-1.42,211.17,211.17,0,0,1,47.19,11.33,1.19,1.19,0,0,1,.47,1.93l-.08.09a1.17,1.17,0,0,1-1.31.29,163.15,163.15,0,0,0-34-9.53,1.19,1.19,0,0,0-1.38,1.24c.11,1.8.18,3.09.27,4.94a1.17,1.17,0,0,0,1,1.1,157.82,157.82,0,0,1,26.82,7.21,1.19,1.19,0,0,1,.53,1.83l0,.06A1.18,1.18,0,0,1,794,499.11Z" transform="translate(-512.96 -471.61)"/><path class="cls-2" d="M808.54,515.66a1.29,1.29,0,0,1,1.84-.31,85.93,85.93,0,0,0,8.44,5.54c5.32,3,9.39,4.16,11.27,2.47s.59-4.56-6-9.86c-8-6.4-14.43-10.84-14.16-14.53.29-4.08,11.07-3.61,25.15,5.38a67.39,67.39,0,0,1,11.94,9.5,1.3,1.3,0,0,1-1,2.21l-.7,0a1.27,1.27,0,0,1-.91-.43,52,52,0,0,0-11.16-9.31c-9.38-6-13.94-5.49-14.41-3.85-.65,2.24,3.23,5.06,10.21,11.1,8.55,7.41,10.06,12.19,6.69,14.14-3.54,2.05-9.83.2-18.43-4.66a90.25,90.25,0,0,1-8.6-5.41,1.3,1.3,0,0,1-.3-1.76Z" transform="translate(-512.96 -471.61)"/><path class="cls-2" d="M653.84,487.49a2,2,0,0,1,.8-3,77.47,77.47,0,0,1,14.3-4.68c8.95-2,15.78-1.7,19.63-.59,3.56,1,5.16,2.85,4.56,5s-2.66,3.76-5.53,5.08c-3.91,1.79-9.36,3.13-15.47,4.58l-2.63.63a2,2,0,0,0-1.32,2.83l2.07,4.24a2,2,0,0,1-1.11,2.76l-.77.28a2,2,0,0,1-2.33-.67Zm11.44,3.84a2,2,0,0,0,2.22,1.08c1.19-.26,2.54-.59,4.07-1,8.12-1.91,13.41-3.76,13.7-7s-6-4.51-15.48-2.39c-2.33.53-4.29,1.1-5.76,1.59a2,2,0,0,0-1.16,2.77Z" transform="translate(-512.96 -471.61)"/><path class="cls-2" d="M844.66,540.32a1.3,1.3,0,0,1,1.86.19,84.46,84.46,0,0,0,6.67,7.58c4.32,4.35,7.94,6.51,10.21,5.37,2.1-1.05,1.78-4.23-3.19-11.09-6-8.29-11-14.29-9.79-17.78,1.36-3.85,11.63-.54,22.82,11.87a67,67,0,0,1,9,12.32,1.29,1.29,0,0,1-1.53,1.87l-.67-.21a1.32,1.32,0,0,1-.77-.66A51.8,51.8,0,0,0,871,537.85c-7.46-8.24-12-9-12.88-7.55-1.22,2,1.78,5.75,6.9,13.42,6.28,9.41,6.47,14.42,2.7,15.41-4,1-9.53-2.42-16.54-9.38a90.15,90.15,0,0,1-6.84-7.51,1.28,1.28,0,0,1,.17-1.77Z" transform="translate(-512.96 -471.61)"/><path class="cls-2" d="M598.3,527.34a171.07,171.07,0,0,0-18.86,19.3,1.31,1.31,0,0,0,.32,2c1.83,1.14,3.15,2,5.2,3.22a1.32,1.32,0,0,0,1.66-.22c7-7.42,11.07-11.41,16.46-16.74a1.32,1.32,0,0,1,2.2.56h0a1.17,1.17,0,0,1-.33,1.2c-7.52,7.07-14.42,14.87-21.46,22.42a1.33,1.33,0,0,1-1.45.33c-8.83-3.44-11.52-4.5-20.31-7.49a1.34,1.34,0,0,1-.67-2,196.62,196.62,0,0,1,32.6-35.63,1.33,1.33,0,0,1,2.11.55l0,.11a1.2,1.2,0,0,1-.38,1.34,153.53,153.53,0,0,0-24.81,25.12,1.32,1.32,0,0,0,.37,2c1.63,1,2.77,1.63,4.33,2.58a1.33,1.33,0,0,0,1.71-.29,154.32,154.32,0,0,1,19.5-20.18,1.32,1.32,0,0,1,2,.45l0,.07A1.18,1.18,0,0,1,598.3,527.34Z" transform="translate(-512.96 -471.61)"/><path class="cls-2" d="M641.58,514.55a1.3,1.3,0,0,1-1.18-.11,26.91,26.91,0,0,0-5.84-2.79,59.62,59.62,0,0,0-5.85-1.59l-1.54.94c-.42,1.57-.85,3.23-1.33,5.63a26.88,26.88,0,0,0-.4,6.22,1.32,1.32,0,0,1-.51,1.1c-.75.57-1.34,1-1.95,1.53a1.3,1.3,0,0,1-2.12-.87c-.46-4.29,0-7.61,1.76-13.1a1.31,1.31,0,0,0-1.14-1.71,57.07,57.07,0,0,0-16.31.88,1.3,1.3,0,0,1-1-2.3c1.09-.87,2.2-1.72,3.65-2.79a1.37,1.37,0,0,1,.67-.25,63.33,63.33,0,0,1,10.4-.29,41.5,41.5,0,0,1,5.91.6l1.46-.85a31.54,31.54,0,0,1,2.51-5.31,65.56,65.56,0,0,1,5.92-8.88,1.42,1.42,0,0,1,.55-.42c1.56-.63,2.79-1.12,4-1.56a1.3,1.3,0,0,1,1.4,2.1A58.14,58.14,0,0,0,631,504.19a1.31,1.31,0,0,0,.87,1.89c5.76,1.28,8.9,2.65,12.4,5.3a1.3,1.3,0,0,1-.34,2.27C643.2,513.92,642.48,514.19,641.58,514.55Z" transform="translate(-512.96 -471.61)"/></g></g><g id="final-2" data-name="final"><g id="R-2" data-name="R"><path class="cls-3" d="M713.54,624.47H703.26A4.46,4.46,0,0,1,698.8,620V583a4.46,4.46,0,0,0-4.46-4.46H680.69c-17.43.48-25.38,6-29.79,20.61-3.39,10.69-6.2,18.7-8.44,23a4.45,4.45,0,0,1-3.94,2.37h-10a4.45,4.45,0,0,1-4.1-6.2c2.31-5.34,4.94-13.12,8.15-22.89,3.52-11,10.36-18.56,21.84-21.39v-.47c-15.67-3.78-28-13-28-27,0-8.18,7.58-17.92,15.08-22.64,9.27-6,20.47-9,41-9,11.63,0,22.74,2.81,31.85,4.46a4.45,4.45,0,0,1,3.65,4.38L718,620A4.47,4.47,0,0,1,713.54,624.47Zm-14.8-91.09a4.45,4.45,0,0,0-4-4.48,146.62,146.62,0,0,0-15-.67c-20.3.16-27.32,6.6-27.32,16.6s8.48,18,29,18h12.58a4.46,4.46,0,0,0,4.46-4.42Z" transform="translate(-512.96 -471.61)"/></g><g id="B-2" data-name="B"><path class="cls-3" d="M725.87,523.93a4.47,4.47,0,0,1,3.63-4.39c8.62-1.64,21.29-4.72,33-4.73,19.19,0,29.73,3.65,39,9a23.72,23.72,0,0,1,12.67,20.56c0,10.22-9.49,19.18-25.15,23.28V568c14.12,2.51,30.67,10.85,30.68,26.57,0,9.12-5.08,16-12.58,21.23-10.37,6.77-27.14,9.91-51.42,9.92-10.68,0-19.35-.41-25.66-.89a4.47,4.47,0,0,1-4.13-4.47Zm19.21,35.16a4.47,4.47,0,0,0,4.48,4.47h13c20.3,0,29-8.53,29-18.75,0-12.42-10-16.32-29.42-16.32-5.72,0-9.86.2-12.91.47a4.48,4.48,0,0,0-4.08,4.47Zm0,51.16a4.46,4.46,0,0,0,4.19,4.47c3.28.19,7.29.27,11.92.27,19.86,0,38.18-5.2,38.17-20.61,0-14.47-17.44-20.44-38.4-20.44H749.56a4.49,4.49,0,0,0-4.48,4.48Z" transform="translate(-512.96 -471.61)"/></g><g id="YCLOUD-2" data-name="YCLOUD"><path class="cls-4" d="M524.51,584.93s-12.12-7.15-.85-15.21c11.83-8.45,19.44,5.07,19.44,5.07s-.85-11,12.67-11S571,572.25,571,572.25s8.93-5.92,18.4-1.27S593,584.92,593,584.92s10.14-.85,10.14,11c0,10.14-16.9,4.23-16.9,4.23s5.07,11-5.91,16.9c-10.36,5.58-21.12-8.45-21.12-8.45s-.85,11.83-16,9.3c-16.38-2.73-11.84-16-11.84-16s-13.65,7.19-17.74-5.07C511,589.16,524.51,584.93,524.51,584.93Z" transform="translate(-512.96 -471.61)"/><path class="cls-4" d="M854,584.75s-12.12-7.15-.85-15.21c11.83-8.45,19.44,5.07,19.44,5.07s-.85-11,12.67-11,15.21,8.45,15.21,8.45,8.92-5.92,18.4-1.27,3.57,13.94,3.57,13.94,10.14-.85,10.14,11c0,10.14-16.9,4.22-16.9,4.22s5.07,11-5.91,16.9c-10.36,5.58-21.12-8.44-21.12-8.44s-.85,11.83-16.06,9.3c-16.37-2.73-11.83-16.06-11.83-16.06s-13.65,7.2-17.74-5.06C840.48,589,854,584.75,854,584.75Z" transform="translate(-512.96 -471.61)"/></g><g id="EXPRESS-2" data-name="EXPRESS"><path class="cls-5" d="M700,477a2,2,0,0,1,1.32-2.94,107,107,0,0,1,16.82-2.1c11.13-.49,18.33.9,22.62,2.75,3.47,1.49,4.7,3.41,3.83,5.16-1,1.94-3.86,3.07-7.53,3.77a2,2,0,0,0-1.18,3.36,4.74,4.74,0,0,1,1.4,3c.15,1.73.18,3.18.21,4.33a2,2,0,0,1-2.3,2l-1.64-.22a2,2,0,0,1-1.69-1.47c-.28-1.06-.6-2.61-1.08-4.51-.85-3.29-3.88-4.89-10.72-4.71-1.86.07-3.1.15-4.53.28a2,2,0,0,0-1.73,2.62l1.77,5.35a2,2,0,0,1-1.57,2.61l-1.5.24a2,2,0,0,1-2.06-1Zm11.76,5.2a2,2,0,0,0,2.1,1.36c2.28-.23,3.86-.33,6.56-.42,8.56-.31,14.46-1.4,15.18-4.06.81-3-6-5.2-16.48-4.81a71.78,71.78,0,0,0-7.3.61,2,2,0,0,0-1.62,2.61C710.78,479.13,711.22,480.46,711.8,482.2Z" transform="translate(-512.96 -471.61)"/><path class="cls-6" d="M793.71,496.8a170.65,170.65,0,0,0-25.29-6.91,1.19,1.19,0,0,0-1.41,1.23c.1,2.13.17,3.65.28,6a1.22,1.22,0,0,0,.89,1.1c11.13,2.95,14.47,3.84,21.51,5.87a1.18,1.18,0,0,1,.49,2l0,0a1.17,1.17,0,0,1-1.17.27c-9.85-3.16-20.15-5.4-30.16-7.92a1.2,1.2,0,0,1-.89-1c-1.42-8.84-1.84-11.51-3.63-20.11a1.19,1.19,0,0,1,1.31-1.43,212.27,212.27,0,0,1,47.19,11.33,1.2,1.2,0,0,1,.47,1.93l-.09.09a1.18,1.18,0,0,1-1.3.3,162.73,162.73,0,0,0-34-9.54,1.19,1.19,0,0,0-1.38,1.25c.11,1.79.17,3.09.27,4.93a1.17,1.17,0,0,0,1,1.11,156.86,156.86,0,0,1,26.82,7.2,1.19,1.19,0,0,1,.52,1.83l0,.06A1.17,1.17,0,0,1,793.71,496.8Z" transform="translate(-512.96 -471.61)"/><path class="cls-7" d="M808.23,513.35a1.29,1.29,0,0,1,1.84-.31,87.14,87.14,0,0,0,8.44,5.54c5.33,3,9.39,4.17,11.27,2.47s.6-4.55-6-9.86c-8-6.39-14.43-10.84-14.17-14.53.3-4.08,11.08-3.61,25.16,5.38a66.88,66.88,0,0,1,11.93,9.5,1.3,1.3,0,0,1-1,2.21l-.7,0a1.31,1.31,0,0,1-.92-.43A51.83,51.83,0,0,0,832.94,504c-9.38-6-13.94-5.49-14.42-3.85-.65,2.24,3.24,5.06,10.22,11.1,8.55,7.41,10.06,12.19,6.69,14.14-3.54,2-9.84.2-18.44-4.65a92,92,0,0,1-8.59-5.42,1.3,1.3,0,0,1-.3-1.76Z" transform="translate(-512.96 -471.61)"/><path class="cls-8" d="M653.54,485.19a2,2,0,0,1,.8-3,76.47,76.47,0,0,1,14.3-4.68c8.94-2,15.78-1.71,19.63-.6,3.55,1,5.16,2.85,4.56,5s-2.66,3.77-5.53,5.08c-3.91,1.79-9.36,3.13-15.47,4.58l-2.63.64a2,2,0,0,0-1.33,2.82c.73,1.48,1.34,2.73,2.07,4.24a2,2,0,0,1-1.11,2.76l-.76.28a2,2,0,0,1-2.34-.67ZM665,489a2,2,0,0,0,2.22,1.08c1.19-.26,2.54-.59,4.07-1,8.11-1.91,13.41-3.75,13.7-7s-6-4.51-15.48-2.38a58.47,58.47,0,0,0-5.76,1.58,2,2,0,0,0-1.16,2.78Z" transform="translate(-512.96 -471.61)"/><path class="cls-9" d="M844.36,538a1.3,1.3,0,0,1,1.86.19,85.86,85.86,0,0,0,6.66,7.58c4.33,4.35,8,6.51,10.22,5.37,2.09-1,1.78-4.23-3.19-11.09-6-8.29-11-14.29-9.8-17.77,1.37-3.86,11.63-.55,22.82,11.86a66.66,66.66,0,0,1,9,12.33,1.3,1.3,0,0,1-1.53,1.87l-.67-.22a1.26,1.26,0,0,1-.77-.66,52.47,52.47,0,0,0-8.28-11.93c-7.47-8.23-12-9-12.88-7.55-1.22,2,1.78,5.75,6.9,13.43,6.28,9.4,6.47,14.41,2.7,15.4-4,1-9.54-2.42-16.54-9.38a92.19,92.19,0,0,1-6.85-7.51,1.29,1.29,0,0,1,.18-1.77Z" transform="translate(-512.96 -471.61)"/><path class="cls-10" d="M598,525a169.39,169.39,0,0,0-18.87,19.29,1.33,1.33,0,0,0,.32,2c1.84,1.13,3.15,2,5.2,3.21a1.34,1.34,0,0,0,1.67-.22c7-7.42,11.07-11.41,16.46-16.74a1.32,1.32,0,0,1,2.2.56h0a1.19,1.19,0,0,1-.33,1.21c-7.53,7.06-14.43,14.87-21.46,22.41a1.33,1.33,0,0,1-1.46.33c-8.83-3.44-11.52-4.5-20.31-7.49a1.34,1.34,0,0,1-.66-2,196.62,196.62,0,0,1,32.6-35.63,1.32,1.32,0,0,1,2.1.56l0,.11a1.17,1.17,0,0,1-.38,1.33A154.33,154.33,0,0,0,570.31,539a1.33,1.33,0,0,0,.38,2c1.63,1,2.76,1.63,4.32,2.58a1.33,1.33,0,0,0,1.72-.29,153.68,153.68,0,0,1,19.5-20.18,1.32,1.32,0,0,1,2,.45l0,.07A1.19,1.19,0,0,1,598,525Z" transform="translate(-512.96 -471.61)"/><path class="cls-11" d="M641.28,512.24a1.3,1.3,0,0,1-1.18-.11,27.71,27.71,0,0,0-5.85-2.79,59.51,59.51,0,0,0-5.84-1.59l-1.54.94c-.42,1.57-.85,3.23-1.33,5.63a26.91,26.91,0,0,0-.4,6.22,1.29,1.29,0,0,1-.52,1.1c-.75.57-1.34,1-1.94,1.53a1.3,1.3,0,0,1-2.12-.87c-.46-4.28,0-7.61,1.76-13.1a1.31,1.31,0,0,0-1.14-1.71,57.15,57.15,0,0,0-16.32.88,1.3,1.3,0,0,1-1-2.3c1.08-.87,2.2-1.72,3.65-2.79a1.34,1.34,0,0,1,.67-.25,63.24,63.24,0,0,1,10.4-.28,40.23,40.23,0,0,1,5.91.59l1.46-.85a31.54,31.54,0,0,1,2.51-5.31,64.77,64.77,0,0,1,5.91-8.87,1.32,1.32,0,0,1,.56-.43c1.55-.63,2.79-1.11,4-1.56a1.3,1.3,0,0,1,1.4,2.1,58.45,58.45,0,0,0-9.56,13.46,1.31,1.31,0,0,0,.87,1.89c5.77,1.28,8.91,2.65,12.41,5.3a1.31,1.31,0,0,1-.35,2.28C642.9,511.61,642.18,511.88,641.28,512.24Z" transform="translate(-512.96 -471.61)"/></g></g></svg>